<svg width="162" height="37" viewBox="0 0 162 37" fill="none" xmlns="http://www.w3.org/2000/svg">
<path d="M8.4 36.384C5.792 36.384 3.856 35.52 2.592 33.792C1.328 32.048 0.752 29.488 0.864 26.112L5.952 25.632C5.952 27.728 6.144 29.256 6.528 30.216C6.928 31.16 7.552 31.632 8.4 31.632C8.864 31.632 9.248 31.504 9.552 31.248C9.872 30.976 10.112 30.592 10.272 30.096C10.432 29.584 10.512 28.96 10.512 28.224C10.512 27.68 10.464 27.176 10.368 26.712C10.272 26.248 10.064 25.712 9.744 25.104C9.44 24.48 8.968 23.672 8.328 22.68C7.704 21.688 6.848 20.392 5.76 18.792C4.368 16.728 3.32 14.848 2.616 13.152C1.928 11.456 1.584 9.936 1.584 8.592C1.584 6.976 1.864 5.552 2.424 4.32C3 3.088 3.8 2.12 4.824 1.416C5.848 0.711999 7.024 0.351999 8.352 0.335999C10.672 0.287998 12.456 1.08 13.704 2.712C14.968 4.328 15.6 6.656 15.6 9.696L10.512 10.176C10.512 8.512 10.336 7.248 9.984 6.384C9.632 5.504 9.12 5.072 8.448 5.088C8.032 5.088 7.688 5.208 7.416 5.448C7.16 5.672 6.968 6.024 6.84 6.504C6.728 6.984 6.672 7.6 6.672 8.352C6.672 8.976 6.792 9.648 7.032 10.368C7.288 11.088 7.712 11.944 8.304 12.936C8.912 13.928 9.728 15.152 10.752 16.608C11.92 18.256 12.856 19.728 13.56 21.024C14.28 22.304 14.8 23.488 15.12 24.576C15.44 25.648 15.6 26.704 15.6 27.744C15.6 29.616 15.328 31.2 14.784 32.496C14.24 33.776 13.432 34.744 12.36 35.4C11.288 36.056 9.968 36.384 8.4 36.384ZM21.5891 36.384C20.3251 36.384 19.3411 35.776 18.6371 34.56C17.9491 33.328 17.6051 31.736 17.6051 29.784C17.6051 28.392 17.7971 27.128 18.1811 25.992C18.5651 24.856 19.1651 23.84 19.9811 22.944C20.8131 22.048 21.8851 21.256 23.1971 20.568C23.8211 20.232 24.3091 19.968 24.6611 19.776C25.0131 19.584 25.2611 19.424 25.4051 19.296C25.5491 19.152 25.6371 19.008 25.6691 18.864C25.7011 18.72 25.7171 18.528 25.7171 18.288V15.984C25.7171 15.68 25.6931 15.344 25.6451 14.976C25.6131 14.608 25.5011 14.288 25.3091 14.016C25.1171 13.728 24.7891 13.584 24.3251 13.584C23.7811 13.584 23.4211 13.864 23.2451 14.424C23.0691 14.968 22.9811 15.984 22.9811 17.472H18.1331V16.368C18.1331 15.072 18.4211 13.896 18.9971 12.84C19.5891 11.768 20.3811 10.92 21.3731 10.296C22.3651 9.672 23.4611 9.36 24.6611 9.36C25.7651 9.36 26.7571 9.624 27.6371 10.152C28.5331 10.68 29.2451 11.392 29.7731 12.288C30.3011 13.184 30.5651 14.192 30.5651 15.312V31.44C30.5651 31.936 30.5731 32.416 30.5891 32.88C30.6051 33.328 30.6371 33.8 30.6851 34.296C30.7491 34.776 30.8211 35.344 30.9011 36H26.1491C26.0211 35.84 25.9171 35.568 25.8371 35.184C25.7571 34.8 25.7171 34.368 25.7171 33.888H25.3811C24.9651 34.64 24.4211 35.248 23.7491 35.712C23.0771 36.16 22.3571 36.384 21.5891 36.384ZM23.7491 31.632C24.2611 31.632 24.7171 31.472 25.1171 31.152C25.5171 30.816 25.7171 30.448 25.7171 30.048V23.376C25.0131 23.712 24.4051 24.168 23.8931 24.744C23.3971 25.32 23.0131 25.992 22.7411 26.76C22.4851 27.528 22.3571 28.376 22.3571 29.304C22.3571 30.12 22.4611 30.712 22.6691 31.08C22.8931 31.448 23.2531 31.632 23.7491 31.632ZM36.4373 36L32.1653 9.744H36.8693L38.4533 24.96L38.6453 26.64H39.0293L39.2213 24.96L40.8053 9.744H45.5093L41.2373 36H36.4373ZM53.526 36.384C51.59 36.384 50.062 35.744 48.942 34.464C47.838 33.168 47.286 31.384 47.286 29.112V16.632C47.286 14.392 47.846 12.624 48.966 11.328C50.102 10.016 51.638 9.36 53.574 9.36C55.478 9.36 56.99 9.992 58.11 11.256C59.246 12.52 59.814 14.224 59.814 16.368V23.76H51.798V29.472C51.798 30.288 51.958 30.936 52.278 31.416C52.598 31.88 53.03 32.112 53.574 32.112C54.118 32.112 54.542 31.88 54.846 31.416C55.15 30.936 55.302 30.288 55.302 29.472V26.592H59.814V29.376C59.814 31.536 59.246 33.248 58.11 34.512C56.99 35.76 55.462 36.384 53.526 36.384ZM51.798 19.968H55.302V16.272C55.302 15.408 55.15 14.744 54.846 14.28C54.558 13.816 54.134 13.584 53.574 13.584C53.014 13.584 52.574 13.816 52.254 14.28C51.95 14.744 51.798 15.408 51.798 16.272V19.968ZM63.045 36V9.744H67.893V12.672C67.973 12.08 68.253 11.536 68.733 11.04C69.213 10.544 69.805 10.144 70.509 9.84C71.229 9.52 71.973 9.36 72.741 9.36V14.736C71.909 14.448 71.125 14.408 70.389 14.616C69.653 14.808 69.053 15.184 68.589 15.744C68.125 16.288 67.893 16.96 67.893 17.76V36H63.045ZM82.2716 36.384C80.1276 36.384 78.4636 35.688 77.2796 34.296C76.0956 32.888 75.5036 30.912 75.5036 28.368H80.0156C80.0156 29.632 80.2156 30.616 80.6156 31.32C81.0156 32.008 81.5676 32.352 82.2716 32.352C82.6396 32.352 82.9436 32.248 83.1836 32.04C83.4396 31.816 83.6316 31.496 83.7596 31.08C83.8876 30.648 83.9516 30.128 83.9516 29.52C83.9516 28.752 83.7436 28.024 83.3276 27.336C82.9116 26.648 82.1116 25.712 80.9276 24.528C79.7436 23.376 78.8156 22.376 78.1436 21.528C77.4716 20.68 76.9996 19.864 76.7276 19.08C76.4556 18.28 76.3196 17.408 76.3196 16.464C76.3196 14.992 76.5516 13.736 77.0156 12.696C77.4796 11.64 78.1516 10.824 79.0316 10.248C79.9276 9.672 80.9916 9.376 82.2236 9.36C84.3676 9.328 85.9356 9.888 86.9276 11.04C87.9196 12.176 88.4156 13.984 88.4156 16.464H83.9036C83.9036 15.36 83.7756 14.576 83.5196 14.112C83.2796 13.632 82.8796 13.392 82.3196 13.392C82.0156 13.392 81.7516 13.504 81.5276 13.728C81.3036 13.952 81.1276 14.272 80.9996 14.688C80.8876 15.104 80.8316 15.608 80.8316 16.2C80.8316 16.936 81.0636 17.68 81.5276 18.432C82.0076 19.168 82.8316 20.08 83.9996 21.168C85.1196 22.272 85.9996 23.264 86.6396 24.144C87.2956 25.024 87.7596 25.864 88.0316 26.664C88.3196 27.448 88.4636 28.288 88.4636 29.184C88.4636 30.64 88.2076 31.912 87.6956 33C87.1836 34.072 86.4636 34.904 85.5356 35.496C84.6236 36.088 83.5356 36.384 82.2716 36.384ZM99.6075 36V0.719999H104.168C105.848 0.719999 107.28 0.895999 108.464 1.248C109.664 1.6 110.64 2.152 111.392 2.904C112.16 3.656 112.72 4.624 113.072 5.808C113.44 6.992 113.624 8.416 113.624 10.08C113.624 11.184 113.528 12.136 113.336 12.936C113.144 13.736 112.816 14.48 112.352 15.168C111.888 15.856 111.232 16.592 110.384 17.376C111.536 18.016 112.424 19.096 113.048 20.616C113.688 22.12 114.008 23.92 114.008 26.016C114.008 27.6 113.824 29.016 113.456 30.264C113.104 31.496 112.584 32.536 111.896 33.384C111.224 34.232 110.392 34.88 109.4 35.328C108.408 35.776 107.272 36 105.992 36H99.6075ZM104.792 30.864C105.496 30.864 106.088 30.768 106.568 30.576C107.064 30.384 107.464 30.072 107.768 29.64C108.072 29.208 108.288 28.648 108.416 27.96C108.56 27.272 108.632 26.432 108.632 25.44C108.632 24.112 108.504 23.056 108.248 22.272C108.008 21.472 107.608 20.896 107.048 20.544C106.488 20.192 105.736 20.016 104.792 20.016V30.864ZM104.792 15.264C105.704 15.264 106.44 15.104 107 14.784C107.56 14.464 107.968 13.96 108.224 13.272C108.496 12.568 108.632 11.664 108.632 10.56C108.632 8.896 108.328 7.696 107.72 6.96C107.128 6.224 106.152 5.856 104.792 5.856V15.264ZM120.308 36.384C119.044 36.384 118.06 35.776 117.356 34.56C116.668 33.328 116.324 31.736 116.324 29.784C116.324 28.392 116.516 27.128 116.9 25.992C117.284 24.856 117.884 23.84 118.7 22.944C119.532 22.048 120.604 21.256 121.916 20.568C122.54 20.232 123.028 19.968 123.38 19.776C123.732 19.584 123.98 19.424 124.124 19.296C124.268 19.152 124.356 19.008 124.388 18.864C124.42 18.72 124.436 18.528 124.436 18.288V15.984C124.436 15.68 124.412 15.344 124.364 14.976C124.332 14.608 124.22 14.288 124.028 14.016C123.836 13.728 123.508 13.584 123.044 13.584C122.5 13.584 122.14 13.864 121.964 14.424C121.788 14.968 121.7 15.984 121.7 17.472H116.852V16.368C116.852 15.072 117.14 13.896 117.716 12.84C118.308 11.768 119.1 10.92 120.092 10.296C121.084 9.672 122.18 9.36 123.38 9.36C124.484 9.36 125.476 9.624 126.356 10.152C127.252 10.68 127.964 11.392 128.492 12.288C129.02 13.184 129.284 14.192 129.284 15.312V31.44C129.284 31.936 129.292 32.416 129.308 32.88C129.324 33.328 129.356 33.8 129.404 34.296C129.468 34.776 129.54 35.344 129.62 36H124.868C124.74 35.84 124.636 35.568 124.556 35.184C124.476 34.8 124.436 34.368 124.436 33.888H124.1C123.684 34.64 123.14 35.248 122.468 35.712C121.796 36.16 121.076 36.384 120.308 36.384ZM122.468 31.632C122.98 31.632 123.436 31.472 123.836 31.152C124.236 30.816 124.436 30.448 124.436 30.048V23.376C123.732 23.712 123.124 24.168 122.612 24.744C122.116 25.32 121.732 25.992 121.46 26.76C121.204 27.528 121.076 28.376 121.076 29.304C121.076 30.12 121.18 30.712 121.388 31.08C121.612 31.448 121.972 31.632 122.468 31.632ZM132.467 36V9.744H137.315V14.136L135.923 13.392C136.739 12.56 137.419 11.88 137.963 11.352C138.523 10.824 138.995 10.416 139.379 10.128C139.763 9.84 140.099 9.64 140.387 9.528C140.675 9.416 140.963 9.36 141.251 9.36C141.955 9.36 142.579 9.584 143.123 10.032C143.683 10.464 144.115 11.072 144.419 11.856C144.739 12.624 144.899 13.504 144.899 14.496V36H140.051V15.216C140.051 14.448 139.667 14.064 138.899 14.064C138.595 14.064 138.323 14.152 138.083 14.328C137.859 14.504 137.603 14.832 137.315 15.312V36H132.467ZM148.639 36V0.719999H153.487V16.608V17.472H153.727L154.015 16.608L156.367 9.744H160.735L156.415 20.304L156.703 16.176L161.647 36H156.991L154.591 25.392L154.495 25.008H154.255L154.111 25.392L153.487 26.928V36H148.639Z" fill="white"/>
</svg>
